<?xml version="1.0" standalone="no"?>
<!DOCTYPE svg PUBLIC "-//W3C//DTD SVG 20010904//EN"
 "http://www.w3.org/TR/2001/REC-SVG-20010904/DTD/svg10.dtd">
<svg version="1.0" xmlns="http://www.w3.org/2000/svg"
 width="1280.000000pt" height="948.000000pt" viewBox="0 0 1280.000000 948.000000"
 preserveAspectRatio="xMidYMid meet">

<g transform="translate(0.000000,948.000000) scale(0.100000,-0.100000)"
fill="#000000" stroke="none">
<path d="M6020 9064 c-804 -94 -1445 -519 -1769 -1171 -38 -76 -67 -123 -76
-123 -8 0 -283 115 -611 255 -328 140 -607 258 -620 261 -31 8 -86 -12 -114
-41 -14 -14 -24 -41 -27 -68 -5 -43 6 -67 206 -460 116 -228 211 -422 211
-429 0 -9 -159 -95 -417 -225 -455 -230 -463 -235 -463 -315 0 -77 45 -110
221 -162 218 -64 532 -165 540 -173 5 -5 -46 -123 -131 -297 -77 -158 -144
-303 -149 -323 -21 -75 39 -153 117 -153 26 0 137 53 436 209 785 408 773 402
784 389 5 -7 22 -42 37 -78 198 -475 553 -847 1030 -1080 276 -134 553 -212
867 -241 165 -15 602 -6 758 16 134 18 341 65 455 102 587 190 1015 593 1230
1158 24 65 46 119 49 122 6 6 94 -39 665 -337 264 -137 492 -255 507 -260 38
-15 86 3 124 46 51 59 47 74 -115 407 -80 164 -145 304 -145 312 0 7 15 18 33
24 17 5 97 30 177 55 80 25 215 66 300 92 169 51 196 62 223 92 42 46 39 128
-5 169 -13 11 -206 114 -430 227 -224 114 -410 212 -413 217 -4 5 89 197 204
427 223 440 229 458 196 521 -15 30 -69 61 -105 61 -12 0 -52 -13 -88 -29
-505 -218 -1152 -491 -1165 -491 -11 0 -32 33 -65 103 -278 589 -864 1023
-1561 1157 -257 50 -645 64 -901 34z m713 -258 c472 -69 865 -252 1156 -539
198 -196 322 -384 426 -647 20 -52 44 -103 53 -114 23 -24 66 -46 93 -46 13 0
248 97 524 215 276 118 506 215 513 215 7 0 12 -5 12 -11 0 -6 -70 -149 -156
-318 -144 -284 -155 -309 -151 -350 3 -29 13 -52 30 -69 14 -14 169 -98 343
-186 175 -89 319 -167 322 -173 2 -7 -2 -15 -10 -17 -7 -3 -116 -37 -243 -76
-283 -87 -280 -86 -310 -122 -44 -52 -36 -87 66 -300 50 -104 88 -193 84 -196
-6 -6 -116 48 -375 183 -69 37 -195 102 -280 147 -85 44 -161 86 -169 94 -12
11 -12 32 2 146 21 166 21 240 2 278 -42 82 -186 79 -221 -5 -7 -18 -18 -84
-24 -147 -49 -550 -240 -951 -596 -1253 -205 -175 -523 -320 -829 -379 -211
-41 -317 -50 -600 -50 -315 0 -417 10 -646 68 -701 177 -1233 684 -1398 1333
-24 96 -39 183 -51 315 -11 110 -23 139 -72 164 -64 33 -129 14 -169 -49 -18
-28 -20 -43 -14 -116 3 -47 13 -132 22 -189 9 -60 12 -107 7 -112 -15 -15
-817 -430 -831 -430 -17 0 -5 32 89 222 82 168 91 202 69 257 -21 48 -18 47
-436 176 -78 24 -140 48 -140 55 0 11 141 86 523 279 218 111 218 110 56 434
-64 128 -134 264 -155 304 -42 79 -46 93 -25 93 8 0 236 -95 508 -211 271
-116 511 -213 533 -216 62 -8 96 26 131 129 82 248 226 469 435 674 334 325
756 504 1314 558 92 9 486 -3 588 -18z"/>
<path d="M6140 8410 c-135 -18 -345 -89 -480 -164 -516 -283 -809 -827 -761
-1413 28 -344 165 -650 401 -896 401 -419 977 -564 1530 -385 96 31 213 88
317 154 348 223 586 577 663 989 29 157 25 404 -10 560 -45 203 -136 408 -251
566 -74 100 -217 245 -313 316 -184 136 -439 241 -661 273 -79 11 -352 11
-435 0z m385 -754 c99 -30 222 -128 284 -225 63 -98 69 -126 131 -664 12 -99
2 -157 -36 -222 -31 -52 -80 -105 -98 -105 -15 0 -76 64 -76 80 0 19 -64 82
-104 103 -58 30 -155 30 -218 -1 l-47 -23 -43 22 c-61 33 -156 32 -222 0 -38
-19 -58 -38 -93 -93 -25 -38 -56 -74 -69 -80 -22 -10 -29 -8 -58 21 -48 47
-87 123 -93 185 -3 29 2 113 11 187 9 74 25 208 36 298 17 145 23 173 54 238
66 139 202 250 352 288 71 18 216 13 289 -9z m-745 -643 c0 -33 -23 -198 -29
-210 -5 -9 -15 -8 -38 7 -67 41 -67 159 0 200 39 24 67 26 67 3z m1239 -9 c57
-48 59 -140 4 -184 -52 -40 -60 -27 -70 118 -6 88 -5 92 15 92 11 0 34 -12 51
-26z m-394 -423 c22 -15 56 -51 77 -81 41 -61 85 -96 141 -111 33 -9 37 -12
26 -25 -7 -9 -36 -28 -63 -42 -45 -24 -62 -27 -146 -27 -84 0 -101 3 -145 27
-27 14 -70 47 -95 72 -24 25 -50 46 -58 46 -8 0 -38 -24 -67 -54 -73 -74 -141
-99 -251 -94 -67 4 -90 9 -135 35 -30 17 -54 36 -54 43 0 6 18 18 39 25 52 18
86 44 113 86 64 100 109 129 199 129 42 0 69 -7 106 -27 l50 -27 42 24 c80 46
154 46 221 1z m-145 -279 c59 -34 147 -55 212 -49 32 3 61 1 64 -4 8 -14 -40
-107 -74 -144 -36 -40 -86 -75 -106 -75 -9 0 -18 12 -22 28 -10 48 -13 52 -33
52 -21 0 -74 -57 -123 -132 -17 -27 -33 -48 -34 -48 -2 0 -17 21 -35 48 -44
65 -110 132 -130 132 -18 0 -29 -19 -29 -51 0 -72 -128 18 -184 129 -30 58
-22 65 74 66 73 1 95 6 152 33 37 17 86 50 110 72 l42 41 41 -38 c22 -22 56
-48 75 -60z m-540 -59 c0 -36 59 -139 101 -179 89 -83 128 -95 154 -44 9 17
20 30 25 30 11 0 68 -70 104 -128 15 -24 33 -42 41 -40 8 2 38 39 67 83 30 44
61 81 69 83 10 2 21 -9 29 -28 18 -43 55 -40 117 8 74 59 122 128 133 192 3
21 12 36 22 38 26 5 114 -92 150 -165 l33 -68 3 -186 4 -186 -54 -23 c-338
-145 -735 -156 -1078 -30 -144 53 -133 33 -128 238 3 174 4 178 35 245 52 109
173 221 173 160z"/>
<path d="M6090 6957 c-32 -16 -47 -58 -32 -91 21 -47 99 -47 120 -1 16 35 15
49 -5 73 -24 27 -53 34 -83 19z"/>
<path d="M6557 6942 c-38 -42 -6 -112 51 -112 16 0 36 8 45 18 22 25 21 75 -1
95 -25 22 -75 21 -95 -1z"/>
<path d="M1910 3963 c-62 -11 -152 -47 -192 -78 -130 -98 -167 -357 -76 -527
50 -94 135 -152 259 -177 62 -12 395 -36 714 -51 235 -11 273 -15 310 -32 49
-22 62 -137 21 -185 l-24 -28 -664 -5 -663 -5 3 -34 c7 -86 72 -175 160 -218
l57 -28 550 -3 c571 -3 637 0 723 38 110 49 173 141 192 280 33 242 -75 413
-292 465 -39 9 -238 25 -513 41 -247 14 -466 29 -486 34 -57 16 -83 51 -83
116 0 46 4 58 27 82 l27 27 663 5 662 5 -3 40 c-7 84 -77 178 -162 219 -44 21
-56 21 -615 22 -313 1 -581 0 -595 -3z"/>
<path d="M5790 3950 c-198 -52 -291 -209 -262 -441 20 -164 94 -259 239 -310
63 -23 379 -50 783 -69 328 -15 350 -24 350 -140 0 -37 -6 -56 -24 -77 l-24
-28 -660 -3 c-509 -2 -661 -5 -665 -15 -8 -21 19 -104 47 -147 14 -22 45 -54
68 -70 84 -61 89 -61 715 -58 502 3 574 6 618 21 160 53 240 176 239 367 0
221 -97 348 -299 395 -67 16 -153 22 -670 50 -159 9 -307 20 -327 26 -55 14
-78 50 -78 119 0 48 4 60 26 81 l26 24 661 5 662 5 -2 37 c-5 84 -76 181 -163
222 -44 21 -57 21 -615 23 -538 2 -574 1 -645 -17z"/>
<path d="M7780 3963 c-104 -18 -206 -74 -249 -137 -84 -121 -92 -331 -19 -469
35 -66 79 -106 153 -141 87 -42 180 -52 735 -81 372 -19 376 -20 412 -55 23
-24 28 -37 28 -80 0 -58 -11 -84 -43 -102 -17 -10 -172 -14 -672 -18 l-650 -5
-3 -32 c-7 -74 65 -175 156 -220 l57 -28 545 -3 c664 -4 685 -2 805 86 120 87
160 340 80 506 -33 69 -60 98 -128 140 -103 61 -141 66 -887 106 -113 6 -222
15 -242 21 -55 14 -78 50 -78 119 0 48 4 60 26 81 l26 24 661 5 662 5 -2 39
c-6 85 -76 180 -162 220 -45 21 -57 21 -616 22 -313 1 -581 0 -595 -3z"/>
<path d="M4290 3948 c-36 -13 -49 -30 -196 -258 -34 -52 -193 -297 -354 -545
-161 -247 -296 -458 -300 -470 -11 -29 5 -64 35 -75 29 -11 215 -12 255 -1 27
7 73 73 417 608 105 164 206 318 223 341 29 41 33 43 49 28 10 -9 47 -61 82
-117 35 -55 84 -130 108 -167 23 -37 95 -148 159 -247 281 -437 278 -433 321
-446 23 -7 81 -10 145 -7 115 4 139 14 139 61 0 16 -78 145 -210 349 -116 178
-297 457 -403 621 -106 164 -204 306 -217 314 -32 21 -204 28 -253 11z"/>
<path d="M9624 3940 c-74 -24 -145 -83 -179 -150 -42 -82 -47 -148 -43 -555 3
-323 7 -388 21 -431 33 -100 108 -172 210 -203 80 -24 1130 -29 1233 -6 115
26 186 83 237 192 21 47 22 58 25 456 3 346 1 417 -13 469 -21 82 -63 146
-122 185 -95 63 -96 63 -732 62 -541 0 -580 -1 -637 -19z m1145 -285 c16 -8
31 -22 35 -30 3 -9 6 -171 6 -359 0 -258 -3 -346 -12 -359 -22 -30 -109 -35
-553 -36 -461 0 -489 3 -512 49 -9 19 -13 110 -13 355 0 356 1 364 54 385 11
5 234 9 494 9 396 1 478 -1 501 -14z"/>
<path d="M613 1845 c-178 -49 -259 -152 -270 -346 -12 -186 54 -317 195 -388
71 -36 173 -50 537 -71 193 -11 397 -22 455 -26 133 -8 166 -22 181 -77 15
-55 5 -107 -24 -133 -24 -20 -34 -21 -677 -27 -434 -4 -656 -9 -663 -16 -15
-15 16 -108 51 -157 39 -53 95 -90 167 -109 86 -22 1068 -22 1175 0 130 27
209 85 256 187 24 53 29 80 32 167 5 128 -14 212 -66 280 -43 57 -53 64 -122
100 -98 50 -133 55 -540 77 -394 20 -552 32 -575 40 -39 14 -64 46 -71 90 -7
52 9 99 40 117 16 9 189 13 676 17 l655 5 3 33 c7 71 -66 179 -152 225 -41 22
-43 22 -626 24 -477 2 -595 -1 -637 -12z"/>
<path d="M10973 1850 c-113 -23 -210 -98 -255 -197 -19 -41 -22 -66 -22 -183
-1 -132 0 -136 32 -201 36 -74 77 -116 154 -155 94 -48 130 -52 913 -95 105
-6 201 -16 215 -22 63 -30 78 -149 25 -194 l-26 -23 -462 -1 c-254 -1 -550 -4
-657 -8 l-195 -6 2 -37 c5 -84 79 -178 172 -222 45 -20 61 -21 590 -24 472 -2
554 -1 625 14 139 28 212 81 265 194 24 50 26 66 26 180 0 149 -16 205 -77
275 -52 59 -98 88 -179 113 -81 25 -122 29 -469 47 -412 22 -552 32 -581 44
-65 24 -89 112 -49 179 11 17 21 33 22 34 2 1 302 5 668 8 l665 5 -1 46 c-3
88 -78 184 -172 219 -51 19 -77 20 -620 19 -312 -1 -586 -5 -609 -9z"/>
<path d="M2204 1825 c-37 -37 -36 -39 112 -265 44 -69 190 -294 324 -500 134
-206 267 -412 296 -457 30 -45 66 -90 80 -100 34 -22 181 -30 242 -13 46 12
47 12 346 473 31 49 62 87 69 84 12 -3 59 -74 254 -375 63 -97 113 -164 129
-173 19 -10 61 -14 140 -14 130 0 138 4 202 110 30 50 313 488 484 750 220
338 278 430 278 446 0 10 -12 27 -27 39 -26 20 -37 21 -156 18 -125 -3 -129
-4 -150 -29 -12 -15 -80 -118 -152 -230 -71 -112 -166 -258 -210 -326 -44 -67
-122 -188 -174 -268 -51 -80 -97 -145 -101 -145 -12 0 -19 10 -180 259 -85
131 -150 241 -147 250 2 9 61 103 131 210 174 265 171 281 -44 281 -88 0 -121
-4 -137 -15 -12 -9 -47 -54 -77 -100 -31 -47 -60 -85 -66 -85 -5 0 -34 38 -64
84 -74 115 -76 116 -221 116 -134 0 -165 -11 -165 -56 0 -33 2 -37 142 -251
65 -99 118 -187 118 -193 0 -6 -39 -71 -86 -143 -47 -73 -103 -158 -123 -191
-55 -88 -111 -166 -120 -166 -7 0 -165 241 -557 850 -44 69 -91 131 -105 137
-15 8 -68 13 -142 13 -113 0 -119 -1 -143 -25z"/>
<path d="M5343 1838 c-27 -13 -32 -26 -40 -99 -8 -83 3 -146 31 -164 19 -13
125 -16 712 -22 379 -3 710 -3 736 1 26 4 57 15 70 26 21 17 23 26 23 120 0
99 -1 102 -28 126 l-28 24 -727 -1 c-490 0 -734 -4 -749 -11z"/>
<path d="M7162 1838 c-30 -15 -37 -45 -37 -151 0 -123 -1 -123 197 -128 84 -2
414 -4 733 -4 539 0 583 1 608 18 27 17 27 19 27 127 0 167 89 150 -779 149
-504 0 -733 -4 -749 -11z"/>
<path d="M8872 1830 c-20 -19 -22 -31 -22 -125 0 -156 -27 -145 349 -145 170
0 316 -3 325 -6 14 -5 16 -61 16 -519 l0 -514 27 -21 c25 -20 38 -21 135 -18
87 2 111 6 125 21 17 16 18 54 21 529 2 390 5 514 15 520 6 4 153 8 325 8 380
0 352 -11 352 144 0 163 99 146 -849 146 -788 0 -797 0 -819 -20z"/>
<path d="M5330 1292 c-18 -14 -23 -31 -27 -99 -7 -93 -1 -125 27 -153 20 -20
36 -20 740 -20 526 0 726 3 745 12 34 15 48 67 44 161 -7 130 78 117 -774 117
-687 0 -734 -1 -755 -18z"/>
<path d="M7156 1297 c-33 -24 -50 -183 -24 -230 25 -48 2 -46 771 -47 714 0
727 0 747 20 18 18 20 33 20 129 0 102 -2 111 -22 125 -20 14 -108 16 -748 16
-573 0 -730 -3 -744 -13z"/>
<path d="M5364 773 c-47 -9 -59 -38 -59 -144 0 -89 2 -101 23 -121 l23 -23
745 0 746 0 19 24 c16 19 19 40 19 127 0 102 -1 104 -27 121 -25 17 -76 18
-748 19 -396 1 -730 0 -741 -3z"/>
<path d="M7184 773 c-48 -10 -59 -38 -59 -144 0 -89 2 -101 23 -121 l23 -23
745 0 746 0 19 24 c16 19 19 40 19 127 0 102 -1 104 -27 121 -25 17 -76 18
-748 19 -396 1 -730 0 -741 -3z"/>
</g>
</svg>
