<svg version="1.0" xmlns="http://www.w3.org/2000/svg"
 viewBox="330 30 580 290"
 preserveAspectRatio="xMidYMid meet">
<g transform="translate(0.000000,948.000000) scale(0.100000,-0.100000)"
fill="#000000" stroke="none">
<path d="M6020 9064 c-804 -94 -1445 -519 -1769 -1171 -38 -76 -67 -123 -76
-123 -8 0 -283 115 -611 255 -328 140 -607 258 -620 261 -31 8 -86 -12 -114
-41 -14 -14 -24 -41 -27 -68 -5 -43 6 -67 206 -460 116 -228 211 -422 211
-429 0 -9 -159 -95 -417 -225 -455 -230 -463 -235 -463 -315 0 -77 45 -110
221 -162 218 -64 532 -165 540 -173 5 -5 -46 -123 -131 -297 -77 -158 -144
-303 -149 -323 -21 -75 39 -153 117 -153 26 0 137 53 436 209 785 408 773 402
784 389 5 -7 22 -42 37 -78 198 -475 553 -847 1030 -1080 276 -134 553 -212
867 -241 165 -15 602 -6 758 16 134 18 341 65 455 102 587 190 1015 593 1230
1158 24 65 46 119 49 122 6 6 94 -39 665 -337 264 -137 492 -255 507 -260 38
-15 86 3 124 46 51 59 47 74 -115 407 -80 164 -145 304 -145 312 0 7 15 18 33
24 17 5 97 30 177 55 80 25 215 66 300 92 169 51 196 62 223 92 42 46 39 128
-5 169 -13 11 -206 114 -430 227 -224 114 -410 212 -413 217 -4 5 89 197 204
427 223 440 229 458 196 521 -15 30 -69 61 -105 61 -12 0 -52 -13 -88 -29
-505 -218 -1152 -491 -1165 -491 -11 0 -32 33 -65 103 -278 589 -864 1023
-1561 1157 -257 50 -645 64 -901 34z m713 -258 c472 -69 865 -252 1156 -539
198 -196 322 -384 426 -647 20 -52 44 -103 53 -114 23 -24 66 -46 93 -46 13 0
248 97 524 215 276 118 506 215 513 215 7 0 12 -5 12 -11 0 -6 -70 -149 -156
-318 -144 -284 -155 -309 -151 -350 3 -29 13 -52 30 -69 14 -14 169 -98 343
-186 175 -89 319 -167 322 -173 2 -7 -2 -15 -10 -17 -7 -3 -116 -37 -243 -76
-283 -87 -280 -86 -310 -122 -44 -52 -36 -87 66 -300 50 -104 88 -193 84 -196
-6 -6 -116 48 -375 183 -69 37 -195 102 -280 147 -85 44 -161 86 -169 94 -12
11 -12 32 2 146 21 166 21 240 2 278 -42 82 -186 79 -221 -5 -7 -18 -18 -84
-24 -147 -49 -550 -240 -951 -596 -1253 -205 -175 -523 -320 -829 -379 -211
-41 -317 -50 -600 -50 -315 0 -417 10 -646 68 -701 177 -1233 684 -1398 1333
-24 96 -39 183 -51 315 -11 110 -23 139 -72 164 -64 33 -129 14 -169 -49 -18
-28 -20 -43 -14 -116 3 -47 13 -132 22 -189 9 -60 12 -107 7 -112 -15 -15
-817 -430 -831 -430 -17 0 -5 32 89 222 82 168 91 202 69 257 -21 48 -18 47
-436 176 -78 24 -140 48 -140 55 0 11 141 86 523 279 218 111 218 110 56 434
-64 128 -134 264 -155 304 -42 79 -46 93 -25 93 8 0 236 -95 508 -211 271
-116 511 -213 533 -216 62 -8 96 26 131 129 82 248 226 469 435 674 334 325
756 504 1314 558 92 9 486 -3 588 -18z"/>
<path d="M6140 8410 c-135 -18 -345 -89 -480 -164 -516 -283 -809 -827 -761
-1413 28 -344 165 -650 401 -896 401 -419 977 -564 1530 -385 96 31 213 88
317 154 348 223 586 577 663 989 29 157 25 404 -10 560 -45 203 -136 408 -251
566 -74 100 -217 245 -313 316 -184 136 -439 241 -661 273 -79 11 -352 11
-435 0z m385 -754 c99 -30 222 -128 284 -225 63 -98 69 -126 131 -664 12 -99
2 -157 -36 -222 -31 -52 -80 -105 -98 -105 -15 0 -76 64 -76 80 0 19 -64 82
-104 103 -58 30 -155 30 -218 -1 l-47 -23 -43 22 c-61 33 -156 32 -222 0 -38
-19 -58 -38 -93 -93 -25 -38 -56 -74 -69 -80 -22 -10 -29 -8 -58 21 -48 47
-87 123 -93 185 -3 29 2 113 11 187 9 74 25 208 36 298 17 145 23 173 54 238
66 139 202 250 352 288 71 18 216 13 289 -9z m-745 -643 c0 -33 -23 -198 -29
-210 -5 -9 -15 -8 -38 7 -67 41 -67 159 0 200 39 24 67 26 67 3z m1239 -9 c57
-48 59 -140 4 -184 -52 -40 -60 -27 -70 118 -6 88 -5 92 15 92 11 0 34 -12 51
-26z m-394 -423 c22 -15 56 -51 77 -81 41 -61 85 -96 141 -111 33 -9 37 -12
26 -25 -7 -9 -36 -28 -63 -42 -45 -24 -62 -27 -146 -27 -84 0 -101 3 -145 27
-27 14 -70 47 -95 72 -24 25 -50 46 -58 46 -8 0 -38 -24 -67 -54 -73 -74 -141
-99 -251 -94 -67 4 -90 9 -135 35 -30 17 -54 36 -54 43 0 6 18 18 39 25 52 18
86 44 113 86 64 100 109 129 199 129 42 0 69 -7 106 -27 l50 -27 42 24 c80 46
154 46 221 1z m-145 -279 c59 -34 147 -55 212 -49 32 3 61 1 64 -4 8 -14 -40
-107 -74 -144 -36 -40 -86 -75 -106 -75 -9 0 -18 12 -22 28 -10 48 -13 52 -33
52 -21 0 -74 -57 -123 -132 -17 -27 -33 -48 -34 -48 -2 0 -17 21 -35 48 -44
65 -110 132 -130 132 -18 0 -29 -19 -29 -51 0 -72 -128 18 -184 129 -30 58
-22 65 74 66 73 1 95 6 152 33 37 17 86 50 110 72 l42 41 41 -38 c22 -22 56
-48 75 -60z m-540 -59 c0 -36 59 -139 101 -179 89 -83 128 -95 154 -44 9 17
20 30 25 30 11 0 68 -70 104 -128 15 -24 33 -42 41 -40 8 2 38 39 67 83 30 44
61 81 69 83 10 2 21 -9 29 -28 18 -43 55 -40 117 8 74 59 122 128 133 192 3
21 12 36 22 38 26 5 114 -92 150 -165 l33 -68 3 -186 4 -186 -54 -23 c-338
-145 -735 -156 -1078 -30 -144 53 -133 33 -128 238 3 174 4 178 35 245 52 109
173 221 173 160z"/>
<path d="M6090 6957 c-32 -16 -47 -58 -32 -91 21 -47 99 -47 120 -1 16 35 15
49 -5 73 -24 27 -53 34 -83 19z"/>
<path d="M6557 6942 c-38 -42 -6 -112 51 -112 16 0 36 8 45 18 22 25 21 75 -1
95 -25 22 -75 21 -95 -1z"/>
</g>
</svg>
